<svg width="19" height="18" viewBox="0 0 19 18" fill="none" xmlns="http://www.w3.org/2000/svg">
<rect width="18.0025" height="18" fill="#FAFBFC"/>
<path d="M10.2294 0.0840084C8.07594 -0.212216 5.88807 0.280701 4.06973 1.47174C2.25139 2.66278 0.925393 4.47151 0.336583 6.56393C-0.252226 8.65635 -0.0640807 10.8912 0.866279 12.8557C1.79664 14.8202 3.40638 16.3818 5.39826 17.252C5.34439 16.5607 5.39383 15.8652 5.54495 15.1884C5.71145 14.4333 6.71133 10.2718 6.71133 10.2718C6.51222 9.82549 6.41272 9.34117 6.41973 8.85252C6.41973 7.51605 7.19102 6.51887 8.1504 6.51887C8.32275 6.51636 8.49362 6.551 8.65139 6.62042C8.80917 6.68984 8.95014 6.79242 9.06473 6.92118C9.17932 7.04995 9.26484 7.20188 9.31548 7.36664C9.36611 7.53141 9.38067 7.70515 9.35817 7.87604C9.35817 8.68602 8.83798 9.9118 8.56619 11.062C8.51247 11.2729 8.50907 11.4935 8.55624 11.706C8.60341 11.9185 8.69984 12.117 8.83777 12.2854C8.97569 12.4537 9.15124 12.5874 9.35028 12.6755C9.54932 12.7636 9.76627 12.8037 9.98366 12.7926C11.6918 12.7926 12.8366 10.6048 12.8366 8.02184C12.8366 6.04188 11.5253 4.55871 9.10798 4.55871C8.52963 4.53624 7.95274 4.63154 7.41235 4.83884C6.87196 5.04613 6.37934 5.36109 5.96439 5.76459C5.54944 6.16809 5.22083 6.65171 4.9985 7.18609C4.77618 7.72048 4.66478 8.29447 4.67107 8.87322C4.6453 9.5152 4.85242 10.1449 5.25426 10.6462C5.32935 10.7022 5.38417 10.7812 5.41047 10.8711C5.43677 10.961 5.43311 11.0571 5.40005 11.1448C5.35866 11.3104 5.25426 11.7055 5.21286 11.8504C5.20425 11.8995 5.18422 11.9459 5.15438 11.9859C5.12454 12.0259 5.08574 12.0583 5.04108 12.0805C4.99643 12.1028 4.94717 12.1142 4.89729 12.1139C4.8474 12.1137 4.79827 12.1017 4.75387 12.079C3.5083 11.5804 2.92151 10.2097 2.92151 8.64463C2.92151 6.08238 5.06706 3.01525 9.35997 3.01525C12.7763 3.01525 15.0479 5.51449 15.0479 8.18744C15.0479 11.7055 13.0886 14.3505 10.1934 14.3505C9.76063 14.3643 9.33141 14.2688 8.94538 14.0728C8.55935 13.8768 8.22897 13.5866 7.9848 13.2291C7.9848 13.2291 7.46461 15.3135 7.36201 15.7077C7.15258 16.3887 6.84354 17.035 6.44493 17.6255C7.27562 17.8775 8.1387 18.0035 9.00628 17.9999C10.1885 18.0009 11.3592 17.7686 12.4516 17.3165C13.5439 16.8643 14.5363 16.2011 15.3719 15.3649C16.2075 14.5287 16.87 13.5358 17.3214 12.4432C17.7728 11.3505 18.0043 10.1796 18.0025 8.99742C18.0014 6.82396 17.2139 4.7243 15.7855 3.08615C14.3571 1.44799 12.3842 0.38196 10.2312 0.0849083L10.2294 0.0840084Z" fill="#3F3F3F"/>
</svg>
