<svg width="22" height="18" viewBox="0 0 22 18" fill="none" xmlns="http://www.w3.org/2000/svg">
<rect width="22" height="18" fill="#F6F7FB"/>
<path d="M21.9989 2.1368C21.175 2.50356 20.3012 2.74443 19.4065 2.85143C20.3495 2.28389 21.0553 1.39068 21.3924 0.338258C20.5074 0.868262 19.5371 1.2397 18.5258 1.44062C17.8465 0.709238 16.9461 0.22418 15.9646 0.0608579C14.9831 -0.102464 13.9755 0.0651004 13.0984 0.537501C12.2213 1.0099 11.5239 1.76067 11.1145 2.67309C10.7052 3.58551 10.6069 4.60846 10.8349 5.58291C9.04015 5.49239 7.2844 5.02306 5.68163 4.2054C4.07885 3.38774 2.66488 2.24003 1.5315 0.836766C1.13032 1.53017 0.919496 2.31842 0.920624 3.12078C0.920624 4.69559 1.71713 6.08685 2.92808 6.9014C2.21145 6.8787 1.51059 6.68395 0.883929 6.33339V6.38986C0.884145 7.43868 1.24481 8.45516 1.90476 9.26694C2.56472 10.0787 3.48335 10.6358 4.50491 10.8439C3.83965 11.0253 3.14211 11.052 2.46507 10.922C2.75309 11.8248 3.31447 12.6144 4.0706 13.1801C4.82672 13.7459 5.73974 14.0595 6.68181 14.0771C5.74551 14.8171 4.67346 15.3641 3.52695 15.6868C2.38044 16.0096 1.18195 16.1018 0 15.9582C2.06325 17.2934 4.46508 18.0023 6.91817 18C15.2211 18 19.7616 11.0784 19.7616 5.07571C19.7616 4.88022 19.7562 4.68255 19.7475 4.48923C20.6313 3.84646 21.3941 3.05021 22 2.13788L21.9989 2.1368Z" fill="#3F3F3F"/>
</svg>
