<svg width="100" height="28" viewBox="0 0 100 28" fill="none" xmlns="http://www.w3.org/2000/svg">
<circle cx="14" cy="14" r="14" fill="#AABA59"/>
<mask id="mask0_2_354" style="mask-type:alpha" maskUnits="userSpaceOnUse" x="0" y="0" width="28" height="28">
<circle cx="14" cy="14" r="14" fill="#AABA59"/>
</mask>
<g mask="url(#mask0_2_354)">
<path d="M2.95623 14.625C0.807089 19.3579 2.77714 23.4097 4.03081 24.8439C4.03081 19.6808 7.61255 16.2384 9.40342 15.1626C6.39462 18.1745 5.64242 23.5887 5.64242 25.9193C9.94071 26.4572 13.1644 24.3058 13.7017 19.4653C14.1315 15.5928 16.7463 11.3979 18 9.78442C14.7763 8.1709 5.64266 8.70874 2.95623 14.625Z" fill="white"/>
</g>
<path d="M46.16 6.66C49.4267 6.66 51.06 7.81333 51.06 10.12C51.06 11.3867 50.6533 12.4 49.84 13.16C49.04 13.92 47.94 14.3 46.54 14.3C45.8867 14.3 45.3067 14.1133 44.8 13.74C44.56 13.58 44.36 13.3933 44.2 13.18C45.1733 13.18 45.9133 12.8867 46.42 12.3C46.94 11.7 47.2 10.82 47.2 9.66C47.2 8.5 46.6267 7.92 45.48 7.92H45C44.92 7.92 44.8467 7.92667 44.78 7.94L42.48 20H38.14L40.6 6.9C42.0267 6.76667 43.1533 6.69333 43.98 6.68C44.8067 6.66667 45.5333 6.66 46.16 6.66ZM55.9325 18.9C55.5192 19.9 54.6525 20.4 53.3325 20.4C52.6658 20.4 52.1192 20.1667 51.6925 19.7C51.3458 19.3133 51.1725 18.9 51.1725 18.46C51.1725 17.46 51.4058 15.8667 51.8725 13.68L53.3325 6L57.3925 5.6L55.4525 15.72C55.2258 16.7067 55.1125 17.3733 55.1125 17.72C55.1125 18.48 55.3858 18.8733 55.9325 18.9ZM58.4969 19.4C58.1902 19.0533 57.9635 18.6067 57.8169 18.06C57.6835 17.5133 57.6169 16.7933 57.6169 15.9C57.6169 15.0067 57.7702 14.1533 58.0769 13.34C58.3835 12.5267 58.8169 11.8267 59.3769 11.24C60.5235 10.0133 62.0435 9.4 63.9369 9.4C64.6169 9.4 65.2035 9.51333 65.6969 9.74L69.1169 9.4L67.6369 17.2C67.5969 17.36 67.5769 17.5867 67.5769 17.88C67.5769 18.1733 67.6635 18.4133 67.8369 18.6C68.0235 18.7867 68.2502 18.8933 68.5169 18.92C68.3835 19.3733 68.0702 19.7333 67.5769 20C67.0969 20.2667 66.5835 20.4 66.0369 20.4C65.4902 20.4 65.0302 20.2933 64.6569 20.08C64.2969 19.88 64.0635 19.6067 63.9569 19.26C63.7435 19.5933 63.4102 19.8667 62.9569 20.08C62.5035 20.2933 61.9702 20.4 61.3569 20.4C60.7569 20.4 60.2102 20.32 59.7169 20.16C59.2235 20 58.8169 19.7467 58.4969 19.4ZM62.7169 11.28C62.5702 11.52 62.4302 11.8467 62.2969 12.26C62.1635 12.66 61.9835 13.4067 61.7569 14.5C61.5435 15.58 61.4369 16.5067 61.4369 17.28C61.4369 18.0533 61.4969 18.5533 61.6169 18.78C61.7369 19.0067 61.9035 19.12 62.1169 19.12C62.5435 19.12 62.9102 18.92 63.2169 18.52C63.5369 18.1067 63.7569 17.54 63.8769 16.82L64.9369 10.96C64.6569 10.72 64.3502 10.6 64.0169 10.6C63.6969 10.6 63.4369 10.6533 63.2369 10.76C63.0502 10.8667 62.8769 11.04 62.7169 11.28ZM78.6555 20.4C77.0421 20.4 76.2355 19.7733 76.2355 18.52C76.2488 18.1733 76.3088 17.7067 76.4155 17.12L76.7755 15.28C77.1355 13.5467 77.3155 12.4867 77.3155 12.1C77.3155 11.3267 77.0888 10.94 76.6355 10.94C75.8755 10.94 75.2955 11.9333 74.8955 13.92L73.7155 20L69.6955 20.4L71.7755 9.78L75.0555 9.4L74.7355 11.36C75.3621 10.0533 76.6355 9.4 78.5555 9.4C79.4888 9.4 80.1488 9.6 80.5355 10C80.9355 10.3867 81.1355 11.02 81.1355 11.9C81.1355 12.7267 80.9221 14.1067 80.4955 16.04C80.2955 16.9067 80.1955 17.5067 80.1955 17.84C80.1955 18.16 80.2821 18.4133 80.4555 18.6C80.6421 18.7867 80.8688 18.8933 81.1355 18.92C81.0021 19.3733 80.7021 19.7333 80.2355 20C79.7821 20.2667 79.2555 20.4 78.6555 20.4ZM83.0545 18C83.0545 17.64 83.1479 17.0067 83.3345 16.1L84.3945 10.7H83.2145L83.2945 10.1C84.8945 9.62 86.4679 8.79333 88.0145 7.62H88.9745L88.4945 9.8H90.0545L89.8745 10.7H88.3345L87.3145 16.1C87.1412 16.9267 87.0545 17.48 87.0545 17.76C87.0545 18.4 87.3345 18.7867 87.8945 18.92C87.7612 19.3733 87.4545 19.7333 86.9745 20C86.4945 20.2667 85.9145 20.4 85.2345 20.4C84.5545 20.4 84.0212 20.1867 83.6345 19.76C83.2479 19.3333 83.0545 18.7467 83.0545 18ZM95.9411 12.98C96.1278 12.4867 96.2211 12.0267 96.2211 11.6C96.2211 10.8133 95.9011 10.42 95.2611 10.42C94.9278 10.42 94.6211 10.5733 94.3411 10.88C94.0744 11.1733 93.9411 11.5067 93.9411 11.88C93.9411 12.1467 94.0478 12.3867 94.2611 12.6C94.5678 12.8933 95.1144 13.28 95.9011 13.76C96.6878 14.24 97.2278 14.68 97.5211 15.08C97.8278 15.4667 97.9811 15.9333 97.9811 16.48C97.9811 17.0133 97.8478 17.5267 97.5811 18.02C97.3278 18.5133 96.9678 18.9333 96.5011 19.28C95.5011 20.0267 94.2011 20.4 92.6011 20.4C91.7344 20.4 90.9678 20.1733 90.3011 19.72C89.6344 19.28 89.3011 18.8 89.3011 18.28C89.3011 17.76 89.4878 17.3467 89.8611 17.04C90.2478 16.7333 90.7211 16.58 91.2811 16.58C91.8411 16.58 92.2944 16.6867 92.6411 16.9C92.4678 17.34 92.3811 17.7067 92.3811 18C92.3811 18.88 92.7544 19.32 93.5011 19.32C93.8211 19.32 94.0878 19.22 94.3011 19.02C94.5144 18.82 94.6211 18.5467 94.6211 18.2C94.6211 17.52 94.0478 16.82 92.9011 16.1C91.9678 15.4867 91.3944 15.06 91.1811 14.82C90.8211 14.3933 90.6411 13.9133 90.6411 13.38C90.6411 12.8467 90.7678 12.3267 91.0211 11.82C91.2744 11.3133 91.6344 10.88 92.1011 10.52C93.0744 9.77333 94.4078 9.4 96.1011 9.4C96.9678 9.4 97.6544 9.57333 98.1611 9.92C98.6811 10.2667 98.9411 10.7333 98.9411 11.32C98.9411 11.9067 98.7611 12.3667 98.4011 12.7C98.0544 13.0333 97.5611 13.2 96.9211 13.2C96.4811 13.2 96.1544 13.1267 95.9411 12.98Z" fill="#1D2F50"/>
</svg>
