<svg width="16" height="16" viewBox="0 0 16 16" fill="none" xmlns="http://www.w3.org/2000/svg">
<path d="M12.6266 11.5978L16 14.8882L14.8855 15.9755L11.5128 12.6843C10.2579 13.6658 8.69706 14.1996 7.08871 14.1974C3.17574 14.1974 0 11.0991 0 7.28158C0 3.46406 3.17574 0.365784 7.08871 0.365784C11.0017 0.365784 14.1774 3.46406 14.1774 7.28158C14.1797 8.85069 13.6325 10.3735 12.6266 11.5978ZM11.0466 11.0276C12.0462 10.0248 12.6044 8.68043 12.6021 7.28158C12.6021 4.30932 10.1345 1.90263 7.08871 1.90263C4.04214 1.90263 1.57527 4.30932 1.57527 7.28158C1.57527 10.2531 4.04214 12.6605 7.08871 12.6605C8.52254 12.6627 9.90047 12.1181 10.9284 11.1429L11.0466 11.0276Z" fill="#1D252C"/>
</svg>
