<svg width="15" height="20" viewBox="0 0 15 20" fill="none" xmlns="http://www.w3.org/2000/svg">
<path d="M15 20H13.125V18.0952C13.125 17.3375 12.8287 16.6108 12.3012 16.0749C11.7738 15.5391 11.0584 15.2381 10.3125 15.2381H4.6875C3.94158 15.2381 3.22621 15.5391 2.69876 16.0749C2.17132 16.6108 1.875 17.3375 1.875 18.0952V20H0V18.0952C0 16.8323 0.49386 15.6211 1.37294 14.7281C2.25201 13.835 3.4443 13.3333 4.6875 13.3333H10.3125C11.5557 13.3333 12.748 13.835 13.6271 14.7281C14.5061 15.6211 15 16.8323 15 18.0952V20ZM7.5 11.4286C6.76131 11.4286 6.02986 11.2808 5.34741 10.9936C4.66495 10.7064 4.04485 10.2855 3.52252 9.7549C3.00019 9.22428 2.58586 8.59434 2.30318 7.90105C2.02049 7.20776 1.875 6.4647 1.875 5.71429C1.875 4.96387 2.02049 4.22081 2.30318 3.52752C2.58586 2.83423 3.00019 2.2043 3.52252 1.67368C4.04485 1.14306 4.66495 0.722144 5.34741 0.434974C6.02986 0.147804 6.76131 -1.1182e-08 7.5 0C8.99184 2.25831e-08 10.4226 0.602039 11.4775 1.67368C12.5324 2.74531 13.125 4.19876 13.125 5.71429C13.125 7.22981 12.5324 8.68326 11.4775 9.7549C10.4226 10.8265 8.99184 11.4286 7.5 11.4286ZM7.5 9.52381C8.49456 9.52381 9.44839 9.12245 10.1517 8.40803C10.8549 7.6936 11.25 6.72463 11.25 5.71429C11.25 4.70394 10.8549 3.73497 10.1517 3.02055C9.44839 2.30612 8.49456 1.90476 7.5 1.90476C6.50544 1.90476 5.55161 2.30612 4.84835 3.02055C4.14509 3.73497 3.75 4.70394 3.75 5.71429C3.75 6.72463 4.14509 7.6936 4.84835 8.40803C5.55161 9.12245 6.50544 9.52381 7.5 9.52381Z" fill="#1D252C"/>
</svg>
